<svg xmlns="http://www.w3.org/2000/svg"><defs><style>.land{fill:#ccc;fill-opacity:1;stroke:#fff;stroke-opacity:1;stroke-width:.5}</style></defs><path id="EG-ALX" class="land" d="M305.8 311.32l.07.22-.17-.12-.21.16.16.41-.26.06.04.44.76 1.45-.02 2.23-1.11 1.81-1.19 3.14-4.56 2.63-3.2 2.64 2.3 2.03-.7 2.76-1.17 2.09 2.28 3.74 5.62 6.44-5.06 7.56-4.91 2.33-3.9 1.27-1.79.26-1.42 2.08-1.43 4.22-.91-33.65 2.25-1.62.08-.25 2.15-1.77 2.02-1.36.79-.91.13-.62.32-.22.21-.01-.32.22.17.22.21-.28.15.06-.22.58.32-.46.04.41.25.03.15-.23v.36l.7-.3 1.07-.97.25-.7.19.12.69-.68-.37-.17.46-.51-.21-.16-.37.39-.2-.01-.05.22-.12-.1.06.2-.22-.15.47-.49-.04-.17.7-.25-.1-.32.46-.17-.11.35.17.26.57.07.31-.39-.21-.26.4.23.35-.19 1.56-1.23.05-.23.44-.15 1-1.03.01-.36.5-.03.21-.39.26-.03.15-.58.39.15-.01-.41.21.26.52-.19.55-.73-.24-.29.16-.21.49-.13.52-.52.46-.1z"/><path id="EG-ASN" class="land" d="M437.46 668.05l-1.02 3.55-.01 6.03.79 1.85.32 2.99.92 1.14 1.17 2.13.53 3.27.98 1.77 1.63.93 1.44 1.63.2 4.53 1.07.41-.16 1.84-.72.73-.59.99-.39 2.2.07 2.34.98 3.4 1.57.36 1.6 3.36-.23 1.37-.79 1.13-.65 2.2-1.05 2.05-2.67 2.97-1.25 2.04-1.3 1.42-.07 1.2 3.46 3.32 3.03.24 1.02.98 3.32 2.35 2.23 3.52.21 3.31-1.19 2.02-2.71-.4-2.76-2.94-1.45-1.91-2.88.43-2.57-.78-4.45-3.01-3.16.33-2.99 1.64.26 5.53-1.18 3.42-2.31 2.58-6.45 4.04-3.14 2.75-2.62.78-2.94.88-3.43-1.52-2.35-2.28-1.47-1.9-2.11-1.33-2.75.66-1.18 4.45-.39 2.35-1.18 2.88-1.04 1.96-1.39 1.74-2.71 1.16-4.28-.67-1.44 3.14-1.96 1.96-2.75 1.44-8.11 2.75-1.19 4.65-5.17-.01.03-.94 1.02-2.58 1.35-2.13 1.06-.99.81-1.1.24-.86-.69-.53-.6-1.05-.41-.28-4.96 3.2-1.44-.13-2.67.26-1.51-2.22.78-2.75 4.32-2.23 3.01-.91 4 .12 2.96-2.73 1.92-2.16.83-1.57.48-1.58-.23-1.6v-4.33l-.21-2.22.84-1.83 1.47-1.74 1.17-.5 2.77-.02 2.05.23 1.61-.23 16.39-4.78.98.38 2.59.26 2.57.51 1.94 1.22 1.5.66 1.64-.92 3.88-7.51.79-2.37 1.25-2.8 3.01-4.97 1.54-3.24 3.11-4.89.3-.96-.48-1.98-2.07.11-1.72.39-2.68-.36-5.18-1.23-1.39-1.65.36-3.28 1.71-5.93 1.41-2.01 3.85-2.38 2.19-.91 2.01-.56 2.12-1.72-.32-1.26-3.6-3.25-.17-3.14 1.39-1.39 3.12-1.41 3.74-3.91.39-9.41.59-4.2.02-3.42 1.41-6.97v-2.88l.56-3.32-1.8-3.48-1.73-5.75-.03-4.77-.39-1.85-1.6-2.01-2.68-2.52-3.49-1.62.96-3.51-.07-3.57 1.91 1.73 2.39 1.48 1.83 1.77 4.35 3.02 3.29 5.5.47 3.34.14 9.58 1.92 4.53 3.06 5.11.23 1.55-.39 4.01-3.2 2.66-1.99 2.97-.13 2.37z"/><path id="EG-AST" class="land" d="M375.17 541.63l-2.22-.02-.85-1.85-1.04-.98-.89-1.98-.86-1.15-1.78-.19-1.72 2.75-2.58 1.6-1.19.98-.65.2-2.24-3.71-3.64-8-1.71-2.81-2.69-1.55-3.81-.63-.99-.53-6.05-5.73-1.39-.78-1.13-1.65-.52-2.14-1.39-1.85-.95-2.04-.45-2.55-1.03-.47-.17-1.94-.78-.78.09-2.24 1.04-.1h3.03l4.26.88 1.56-1.37 2.78.19-.67 3.4.58 4.71.61 1.55 1.47 1.76 4.34 1.65 1.39 1.07 3.89 1.52 1.15.1 3.44 1.8 1.37 4.42 6.68 5.26 1.4 3.08 2.3 3.78 1.49 3.84z"/><path id="EG-BA" class="land" d="M563.28 688.79l.19.98-.27.22-.19-.18.31-.29-.04-.73zm-82.61-144.54l.44.53.59.04-.11 1.04.39.72-.12 1.06-1.01-1.38.04-.53-.72-.82.01-.22.49-.44zm-2.85-24.54l.41.11.52.7v.78l.42.54.17.98-.52.01-.31-.24-.26-.6-.71-.4-.4-.73.06-.17.55.06-.2-.64.27-.4zm1.01-13.62l1.41.14.81.84.7.27.45.43.59.07.74 1.64.21.78-.15.32-.64.06.15-.24-.57-.83-.61-.14-.04-.25-.92-.89-.81-.04-.72-.55-.62.08-.66-1.01.35-.01.1-.48.23-.19zm-7.39-4.51l.53.5-.23.88.24.35 1 .42.11.24-.62.76-.56.15.19.91-.75-.91.07-.24.51-.01.04-.21-1.69-.74.81-1.98.35-.12zm1.45-1.92l.3.46.39.17.16.67-.38 1.05-.61-.43-.54-1.16.15-.55.53-.21zm.39-.9l-.52.79-.5.1-.03-.32.36-.14.02-.31.67-.12zm-9.46-5.22l.44.27-.08.21.21.35-.15-.13-.1.24.16.63-.37-.13-.08-.28-.61-.48.58-.68zm-93.42-64.48l4.44.63 4.47 1.76 6.48 1.58h1.24l1.09 2.1 5.16-.98 6.63-.1 8.03-4.94 4.28-1.17 3.94-2.34 5.38-.19.49.75.03.82-.21.65-.96.79.1.27-.47-.03-.42.63.34.54.05.57-.39.84-.05 1.49 1.87 2.33.84 2.14-.08.52.41.45.01.38.76.77.84.5.5 1.32.59.67.32.24.77.07.76.33.84 1.06.57 1.64.42.48-.13 1.03.46.61.26.98-.09.72.15.4.35.18.17.65.45 2.59-.17.64.16.27.8.5 2.01.52 1.04 1.61.29.2.36-.08-.16.48.44.71 1.07.23.16.72.97.66 1.24 3.13.36.49.34.07.54 1.09 1.44.68.12 1.98.54.52-.01.71.79.58.38.06-.01.24.34.24.21 1.14.86.85.16.61 1.01.61.41.69 1.1 1.1.16 1.49.46.14.6-.11.57.21-.01.46.84.99 1.61 1.25-.06.9.33.75 1.11.2.11.46.24.07-.06.16.24.22 1.31-.2.44.1.34.58.54.11.3.52.57.45 1.25.55 2.27 3.35.34 1.05.21.21.16-.14.01.25.31.1.29 1.38.46.7.52.25v.59h-.16l-.05.25.19.45-.16.49.31 1.01-.21.1-.2-.15-.19.27-.38-.63-.01-.46-.35-.32-.3.27-.46-.06-.7-.7-.45-.03-.17-.27-.65-.01-.54-.31-.29.17-.31.7-.1.65.42.42.45.04.54.8.05.66.4.15.36.86.81-.13.74-.55.25.32-.97 2.57.45.15-.13.6.2.34 1.2.13.06.67.37.22-.1.27.54.39-.06.39-.31.07-.32-.95-.49-.53-.41-.32-.3.2.36.76-.75-.59-.21-.55-.37-.13-1.34 1.16-.17.53h-.24l.05.36.89.24.39.39 1.07 1.42.28.77.24.1.16 1.11-.24 1.05.15.91 1.41.2.59 1.08.8.2.35 1.48.35.67.75.48.27.59.21-.11.6.77.02.46.39.43.1.55-.2.64-.22.17.01-.46-.22.49.2.11.2-.14.08.91.45.21-.14.53.15.38.52.27.3.66.36.08.04.27 1.35.31.1.45h.27l.95.91.84.25.31.39.62-.06.1.18.41.01.4.61.35.2-.03.48-.4.47.52 1.23-.54.26-.6.74-.04.67.25.17.04.47-.16 2.19.22.47.46.06.47.64 1.26.36.72.86.24.92-.52-.18-.36.46.2.63 1.04 1.1-.08.26-.52.29.97.58.22.66-.22.08.26.06.55 1.67.87.78.33.82-.1.13.31.38.6-.53.6-.01-.35 1.18.39.81.31.19-.1.56-.45.13-.27-.08-.62-.82-.26-.04-.22.2-.4 1.16-.44.4.3.99-.21.54-.41.38.34 1.17.32.31-.09.42.32.04-.51.39-.1.5.14.07-.07.15-.15-.08-.12.43.16 1.08-.36 1.03.13.53.52.81 1.1.4-.04-.22.49.65.67.19.19.6.9.49-.01.69.49.76-.02.49.31.13-.05.74.19-.03.54.65.11.54.77.89-.24.31.27.07-.01.4.41.99.01.71 1.05 1.87.17.94.87.61.29.91 1.12 1.62.34.11.72 1.01.22.75-.06 1.22.79 1.12.06.22-.21.26.49.54.2 1.41.99 1.47.21.95.89.73.4 1.12.67.46.04.72-.17-.06-.06.21.97.76 1.85 4.95.3.39 1.12.61.31.81-.26.12.24.28.56-.07.05.62.2-.01.52 1.23.03 1.06.42.51-.35.33.29-.06.27.87.37.36-.14.19 1.15.14.49.34.71 1.53.06.7.3-.15.44.55.64.28.33.55.7.48.29 1.09-.26.41.34-.05.29.77.47.14.09.7-.22.46.22.08.01.32.71.4-.14.37.37 1.35.5.79 1.06.83.6.83.21.99-.03 1.24.51.88-.13.23.67.43.55.76.05 1.11.35.62.22.04.05.74.17.17-.06.8.36.84 1.39 1.47.41 1.15-.2.41.21.03.21.43-.14.58.2.55 1.27 1.35.66 1.04.25.52-.05.49.74 1.33-.25.33.38-.11.29.56 1.25 1.28.26.93.84 1.33.29 1.52.95 1.07.1.59.51.86.06.59.4.34.3.63.57.45.14.85-.52 1 .1.55.14-.04.06.29.91.97.2.01.24.74.66.75.01 1.55.35.25.02 1.68.91 1.07.97.74.38.81.3.1.52.78.29.05.82 2-.35 1.54.36.64.89.21-.25.29-.2.86.05.31.3.11.55.67-.31.51.26.07-.03-.23.59.02.64 1.58.99.67.02.3-.26-.05-.64.42.14.72-.57.6-.04.52 1.47 1.54.65.09.46.35.16.56.45.42-.25.33.29.22 1.09 2.03.59.44.64.14.22.68 1.42.86.44.03-.04-.2.61.07-.04.44.3.75.74.71.36.01.62.45-.04.33.29.53 1.56 1.87.5.84.08.73.3.1.09.48.3.25-.31.54.25.56 1.62 1.96 1.2.86-.16.23.14.65.26.18.61-.14-.2-.76-.9-.56.74-.14 1.12 1.16.69.01.68.38 1.08 1.01.54 1.06.26 1.43-.14.92.61.14 1.07.64 1.41-.23 1.73.49 1.15.57 1.21.95.44.83.21 1.13.4.53.51.3-.17.68-1.04-1.81-.77-.35-.29-.01-.42.35-.46-.04-1.52 1.11-.57-.1-1.55-.94-1.47.2-.94-.27-1.1-1.19-.6.11-1.17.65.49-.46 1.12-.46-.71-.5-1.49-.42-.63.26.01.91.19.04.03.26-.33-.04-.04.35-.56.73-.25-.34-.13.11-.01.27.34.23-.16.24.12.29.14-.04.06.57-.16 1.41.32.52-.09-.84.15.01.06.75-.21.54-.2-.09-.15.35.17 1.33-.38.6.03 1.17.25.15.16.53.35.11.31-.84.51-.07.24.69-.08.75-.22.22-.13.01-.04-.65-.24.03-.01.23-.62.11.16.34.6.37.24 1.41-.01 1.37.14-.09.14.2-.22.76.05 1.72-.32.01-.35-.91-.32.27.09.99.2.08-.08-.42.21.08.17 1.57.39.64-.47 2.23.15-.07.04.22-.49 1.17-.09-.23-.12.16.22.15-.08.26-.39.16.16.41.01-.24.12.07.25 1.5.45.3.24.5.22.05.8 1.04.38 1.07-.09.24.29.3.06.95.16.3.05-.2.11.16.06 2.23-.16.46.2 1.34.19.08.49 1.26-.15.69.14 1.55.82.51.29 1.09.72.77.46.93-16.2 15.3-2.18 2.06-11.72-3.41-11.66 27.08-23.87 4.38-3.3 9.78-41.37-.09-51.37.14-3.62-.17-18.67-.06 1.19-4.65 8.11-2.75 2.75-1.44 1.96-1.96 1.44-3.14 4.27.68 2.71-1.17 1.39-1.73 1.05-1.96 1.18-2.88.39-2.36 1.18-4.45 2.75-.65 2.11 1.33 1.46 1.9 2.35 2.28 3.44 1.52 2.94-.88 2.62-.79 3.14-2.75 6.45-4.04 2.31-2.58 1.18-3.41-.26-5.54 2.99-1.64 3.16-.32 4.45 3.01 2.57.77 2.88-.43 1.46 1.92 2.76 2.94 2.71.4 1.19-2.02-.21-3.31-2.23-3.52-3.32-2.34-1.02-.98-3.02-.25-3.46-3.32.07-1.2 1.31-1.41 1.24-2.05 2.68-2.97 1.05-2.05.65-2.19.78-1.13.24-1.37-1.6-3.37-1.57-.36-.98-3.4-.07-2.34.39-2.2.59-.99.72-.73.16-1.84-1.07-.41-.2-4.53-1.44-1.63-1.63-.92-.98-1.78-.52-3.27-1.18-2.13-.92-1.14-.33-2.99-.78-1.85v-6.03l1.02-3.55.13-2.37 1.99-2.97 3.19-2.65.39-4.01-.23-1.56-3.06-5.11-1.91-4.52-.15-9.58.09.21-.09-.21-.46-3.34-3.3-5.5-4.34-3.02-1.83-1.77-2.39-1.49-2.62-2.38-1.55-2.46-.8-2.53v-5.38l.8-1.83 1.72-1.83 1.89-3.1 5.77-3.76 1.97-3.15 1.74-5.5.19-1.09-.03-3.62-.35-3.43-1.13-2.48-.62-2.18-1.43-2.29-3.39-2.29-4.48-.96-6.08.06-2.47.83-5 3.56-1.43.76-1.69.12-1.96-.88.19-1.64-.34-.13-2.05-2.8-1.04-2.59-1.81-1.33-4.03-1.21-2.73-1.72-.81-.85-1.16-1.77-1.21-3.6-.43-2.98-1.64-.53-.98-1.28-.46-1.6-2.01-2.56-5.82-4.86-2.58-.95-.5-.33-.52-2.5-1.49-3.84-2.3-3.78-1.4-3.08-6.68-5.26-1.37-4.42-3.43-1.8-1.15-.1-3.89-1.52-1.39-1.07-4.34-1.65-1.48-1.75-.61-1.56-.58-4.71.67-3.39.37-3.35-.25-4.74-1.12-3.63-.5-5.87-3.35-7.7-.75-8.27.75-2.81 3.53-5.78.04-2.48.07-4.29 1.28-3.71.46-1.62-3.73-.5 2.75-.89.62-3.66 2.98-5.08 2.11-.85 2.23-3.81 1.49-2.12 2.98-3.53.12-3.25 1.74-1.42.25-4.53 4.74 4.63 3.12 4.75 3.25 2.23z"/><path id="EG-BH" class="land" d="M319.82 303.34l.06.23-.84.13-.07.57.19.22.52-.39.64.35-.3-.6.45.51.39.1-.66-.66.09-.09.35.19.5-.12.69.47 1.34.51.41 4.9 2.79 3.22v6.9l3.66-.35 5.37 5.06-.01 2.83 1.56 1.2-.13 2.63.84.3v2.63l-.58.68.97.45.39.45.06.68.78.9-.52.9-.84.83v1.65l.65.23-.13 1.65-.32 1.13.32 1.28.88-.11-.26 4.66.13.4 1.07.07-.46 1.82 1.18.88-.26 1.73.58 1.54.02 5.88-1.39.16-.14 1.82-6.92 7.08-2.66.35-7.4 7.47-4.74 6.53-.74 1.31-.75.45-1.55-3.11-1.68-1.06-2.83-.55-7.56-5.6-1.96-.96-6.37-5.04-4.26-.14-3.16-1.54-1.27-2.03v-5.72l1.43-4.22 1.42-2.08 1.79-.26 3.9-1.27 4.91-2.33 5.06-7.56-5.62-6.44-2.28-3.74 1.17-2.09.7-2.76-2.3-2.03 3.2-2.64 4.56-2.63 1.19-3.14 1.11-1.81.02-2.23 1.5.33.09.17 1.24.04.2-.16.14.2.16-.12.06.22.61-.16.05.13.04-.2.7-.09 2.36-1.15 1.86-1.63 1.02-1.31 1.27-2.71 1.11-3.51.46-.48.75-.2z"/><path id="EG-BNS" class="land" d="M290.77 444.64l1.82-2.37.98-8.74 1.42-6.04 8.57 1.13 10.68 1.98 2.11 1.13-.17 1.69 1 .4 1.43-.09 22.49-6.28 9.13-14.11 2.82-2.04.06.35.53-.78 2.31.97 2.27.52.95.63.13 4.34-.25 4.53-1.74 1.41-.12 3.26-2.98 3.53-1.49 2.12-2.24 3.81-2.11.84-2.98 5.08-.62 3.66-2.75.89-2.89-2.01-2.43-1.41-43.42 1.37z"/><path id="EG-C" class="land" d="M386.73 367.68l.15 3.56 1.23 4.26 1.93 13.47-.04 4.35-2.19 25.47-.78 14.24h-1.23l-6.48-1.58-4.48-1.76-4.44-.63-3.24-2.34-3.12-4.76-4.74-4.63-.13-4.34-.95-.63-.53-.12-.21-1.52.18-1.48.3-.75.76-.54.3-.67.06-1.62.82-1.42.3-4.99.77-.61.11-.95v-1.01l-1.06-.95-.06-2.71 1.22-.14.04-.76.1-7.68-2.65-.91-.17-1.82-.93-1.64.91-.71-.16-5.75 1.93.2 1.86-1.69 4.4-1.77 4.51-.3h4.59l3.15-1.9 6.29-4.4z"/><path id="EG-DK" class="land" d="M363.19 301.07l5.99 3.39 1.89.79 1.57.14v1.81l-3.12 1.45v1.55l2.43-.04 1.78-.24.1 2.02.99.2 1.2.63.96.92-1.1 6.38 7.23-3.74 1.72-.39 1.85.27.5-.26.3-1.11.42-.03-.36 1.43 2.78-.05.21-.42 1.04.77 1.38.27.44.72.18.77-.36 1.14 1.42 1.75-.43.79.06.74.39.21-.18.06-3.35 1.29-5.09.75-3.59-.07-1.09 1.81-.15 1.98-2.88 2.98-.14 2.89-2.27.18-.16 1.63-1.32.72-.21 1.47-8.82.24-1.32 1.17v6.49l.84.77-.92 2.37-2.02 1.99-1.17-.07-1.07-1.79-.91-.59.01-.12 1.24-1.27-.13-3.45-.67-.28.09-1.01-.98-1.05-.31-3.34.24-2.52.93-4.97 1.01-1.17.78-.45.97-2.36-2.18.28-2.14.02.32-1.53.63-1.07-.1-2.98 1.64.31.7-.54-.24-1.7-.07-10.62-.46-1-.08-2.9-1.09.09-.08-2.09 1.01-.91 1.23.1-.02-2.7z"/><path id="EG-DT" class="land" d="M391.52 305.92l.84 1.37 2.35 2.05 1.54 1.05 2.13 1.06 1.29 1.03.37.04.29.48-.66.11-3.55-2.06-2.45-2.06-.9-.42-.87-.24-.63.12.15.33.81.36.09.27-1.04-.27-.48-.6.81-.72.09-1.13-.54.03.09-.51.27-.29zm-4.19-2.77l.15.75-.26-.33.11-.42zm-.19-1l-.1.1-.4-.46.5.36zm1.24.06l.33.73-.29.46-.36-.11-.35-1-.49-.39-.06-.34.22-.07.72 1.12-.32-1.19.05-.14.23.11.32.82zm.24-1.06l1.05.6.74.89 1.25 1.02.25.98-.34.35.19-.68-.19.15.09-.31-.33-.61-.22-.22.03 1.21-.16-1.3.07.58-.25-.71-.57-.54-.16.06.94 2.49.13-.52-.05.54.28.7-1.04-1.42-.31-.83-.4-.17-.13-.73-1.34-1.48.47-.05zm-2.44 11.16l-.46.49.46-.49.16.08-.71 1.22-.6-.12-.12 1.1-.54-.28v.31l.35.4.46.01.06.15-.63.13-.01.46.29.17-1.78.4-7.23 3.75 1.11-6.39-.96-.91-1.2-.63-.99-.2-.1-2.02-1.78.24-2.42.03v-1.54l3.11-1.45v-1.81l3.07-.45 3.82-1.05 1.41-.54.16-.51-.27 1.5.3.01.67.64-.25-.36.11-.41-.39-.2-.1-.32.31-.31-.09-.33.35.07 1.57-.79 1.75-1.31.26.2 1.02.06-.42.13-.49.48-.2.72.55-.17-.33.86.84 1.23-.02 1.06.25.72-1.26-1.61-.33.06-.03-.73-.62.63-.08.86.05.17.87-.52.02.34.41.05.13.32-.22.4.43.72h.89l-.56.5-1.12-.24-.23.4.18.42-.12.36.38-.12.09.19-.2.25-.92.25.56.3.38-.07.1.43.77.34.34.09.29-.22.17.29-.72 2.11z"/><path id="EG-FYM" class="land" d="M294.99 427.49l6.34-7.21 2.11-1 6.95-8.21 1.49-.14 6.2-7.1 3.73-.99 7.94-5.26 1.62-.28 2.51-1.51 1.45-1.24.13-1.09 14-.13-.28 4.18.77.96 1.33 2.8.77 5.03.76 3.43.24 1.57-2.82 2.04-9.13 14.11-22.49 6.28-1.43.09-1-.4.17-1.69-2.11-1.13-10.68-1.98z"/><path id="EG-GH" class="land" d="M351.91 346.29l-.47-1.21-4.43.05-.38-.81-1.16-.05-.07-.9h-2.42l-.15.99-3.52.44-.88.11-.33-1.27.33-1.13.12-1.65-.64-.23v-1.65l.84-.83.52-.9-.78-.9-.06-.68-.39-.45-.98-.45.59-.68v-2.63l-.85-.3.13-2.63-1.55-1.21.01-2.82.56.52 1.92 3.49 1.23.01.3 1.05h4.67l.39-1.9 5.22.09v-5.61l6.15-.36 2.71.04.1 3.08-.63 1.07-.32 1.53 2.14-.02 2.18-.28-.97 2.36-.78.45-1.01 1.17-.93 4.97-.24 2.52.31 3.34.98 1.05-.09 1.01.67.28.13 3.45-1.24 1.27-3.78-1.74-3.09-.02-.06-1.03z"/><path id="EG-GZ" class="land" d="M358.32 373.61l.16 5.75-.91.71.93 1.64.17 1.82 2.65.91-.1 7.68-.04.76-1.22.14.06 2.71 1.06.95v1.01l-.11.95-.77.61-.3 4.99-.82 1.42-.06 1.62-.3.67-.76.54-.3.75-.18 1.48.21 1.52-1.74-.4-2.31-.97-.53.78-.3-1.92-.76-3.43-.77-5.03-1.33-2.8-.77-.96.28-4.18-14 .13-.13 1.09-1.45 1.24-2.51 1.51-1.62.28-7.94 5.26-3.73.99-6.2 7.1-1.49.14-6.95 8.21-2.11 1-6.34 7.21-1.42 6.04-.98 8.74-1.82 2.37-1.14 4.34-1.58 2.9-1.18 3.35-1.58 5.36-1.18 5.57-2.37 2.23-2.56 2.01-4.73 3.11-3.75 3.34-2.56.67-2.57 2-3.74 1.33-4.14 3.11-3.16 1.55-5.32 1.12-3.16 1.99-.78 1.78-.4 2.22-.59 1.77-2.37 4.97-56.78.14h-1.96l20.39-45.43 41.89-10.06 32.28-31.75 6.46-8.29 6.62-1.63 22.68-15 3.07-.4.76-.45.73-1.31 4.74-6.52.89.04-.89-.04 7.4-7.47 2.66-.35 6.92-7.08 1.44-.12.68-.58 2.09.14.09 3.18 1.42-.07.91.89.07 1.8.9.89 1.63.3.8-.9.89.52.76.19 1.95-.74 1.65 2.78 2.41 1.48z"/><path id="EG-IS" class="land" d="M401.37 322.91l.06.2 2.68-.49.72-.76.99.19.56 1.61 2.2.17 1.94.97 3.19 1.16 3 1.94 3.08.81 1.29 24.4 4.89 8.01 1.41 3.85.77 2.79-5.74-.27-4.61.52-1.73 1.41-6.14-.43-2.64-.81-18.62.11-1.91.18-.03-.79-1.68-3.93-1-4.9-.42-4.56-1.68-.87-.17-1.65 2.27.1.42.87 3.78.19.59-.87 5.04-.29.26-.94 4.74-6.74-.08-2.71-.91-3.85 1.81-4.11.23-1.84 1.7-.05-.2-5.64-1.96-.09-.67-1.21-.71-1.15 1.06-.71-.25-.57.03-.5 1.28-.01-.01-1.85.4-.5.48-.04.23.39.16 1.11-.23.64.57.24-.08.6-.36.67zm1.99-6.68l.38.49.57-.33.48 1.7-.14.37-1.55-.68-.16.42-.42.28-.37-.44-.47.08-.52-.23-1.24.33-.97-1.08.08-.35.48.08.02-.44.4-.15 1.93.05.39.3 1.11-.4zm-1.45-2.65l2.82.73-.32.37-1.53-.44-1.1-.62.13-.04z"/><path id="EG-JS" class="land" d="M430.72 385.01l1.87.07.24-.28.02.12 6.61-.43 9.77.29 8.36 1.18 1.02.29 4.26-.07 8.2 1.92 1.77.86 11.37 7.33 3.6 1.18 3.86.88 6.04 3.68 3.62 1.13 2.62 1.07 1.43-.12.31.27 3.86.59 3.47.29 3.73.73 3.74-.15 2.39.58-.51.43-.5-.07-.84.38-.16.4-.33.16-.27 1.4-.5.63-.34.18-.26-.14.22.46-.74.56.05.6-.41-.04.04.86-.3.44-.62.07-.12.2-.15 1.04-.32.46.16.01-.69.16-.45.63-.06.44-.49.29.2.78-.22.66.08.85-.44.67.35 1.29-.05.9-.44.92-.38.27-.16.77-.76.13-.41.34.02.78-.35.97.1.24-.52.91.25.51-.45.92.13 1.05-.47.84.46.37.04.6.46.47.09 1.62-.81.4v.16l-.67.06-.54.55-.1.48.05.5.35.4.01.31-.25.26.3 1.32-.24.78.17 1.01-.14.26-.6.14-.49.69.14.82-.13.33.21.23-.1 1.8.17.58-.31.58-.03.51.31.69-.91 1.84-1.01 1.22.08.54-.5.38.22.69-.26.27.07.48-1.04.66-.29.71-.05.88-1.19 1.37-.29 1.84.4.88-.17.1-.17.92-.25.45-.41-.14.29-.03.01-.21-.91.06-.6 1.02-.1.72-.6.4.08.79-.51 1.24.1.76-.27.45-.05.61-.89.79-.1.52-.44.66-.05 2.51.35 1.13-.21.93.4.87-.1.2.49.17-.25.34.49.32.03-.24.39.45-.06.16h.2l.16.59-.04 1.14-.42.58.14 1.22-.22.21-.11.94-.36.45.15.77.41.35-.14 1.17.26.51-.46 2.12-.32.14-.09.28.16.2-.46.53-.76.11-.28.48-.39.04.08.61-.81.43-.13.79-.51-.06-.36.39-.6-.24-.24.11.15.27-.2.63.14.42-.39.21.15.7-.22.23-.15.79h-.6l-.3-.73-.19-.07-.11.24.21.08-.26.41-.15-.44-.55.2.19.75-.31.65-.31.07.25.43-.47 1.26-.81.24-.24-.41-.49.29-.46-.35-.05.22-.31.03.07.55.61.74 1.56-.07-.17.6.41 1.15-.3.18-.31-.44.24.52-.26.14-.24-.15-.04-.59-.55-.37-1.12-1.64-.45-.27-1.14-.32-.27.25-1.07-.55-.95-.08-.63.07-.47.34-.13-.38-1.6-.73-1.27-1.56-.72-.49-1.02-1.69-.94-.13-.15-.24-.56.07-1.56-2.33-.35-.1-.66.31-.8-.01-.77-1.21-1.64-.83-.46-.77-.35-.07-.02-.29-.56-.72-.45.01-.82-.49-.1-.42.32-.49-.3-.62-.74-.13v-.2l-.94-.63-.44.08-.19-.32.19-.29-.17-.52-.77-.8-.44-1.1-.56-.34-.17-1.54-.66-.14-.13.25-.02-.39-.46-.14-.5-.48-.15-2.31-.51-.62-.27.07.04.34-.64-.69.04-.39-.31-.25v-.58l-.47-.16-.41-1.13-.77-.2-.78-.75-1.39-.51-.57-.75-.7-.48-1.86-.89-.82-1.07-.45-.18-.16-.66-1.22-1.26-.27-.54-.08-.85-.67-.59-1.17-.44-.05-.27-1.01-.78-.32-.58-.44-.21-.31-1.03-.86-.58-.05-.24.59.2.05-.34-.41-1.41-.24-.24-.94.13-.04.23.37.34-.05.38.2.18-.21.1-.23-.3-.62-1.3.03-.99-.22-.48.15-.64-.59-.76-.51-1.39.47-1.44.01-.88.5-.65-.06-.25.65-1.74-.62-.68-.4-1.29-.97-.85-.29.07.1-.34-.27-.31-.22-.94.01-1.08.29-.52-.29-.52.7-1.33-.51-1.01-.27-.06-.24.23.24-.3-.22-.1.2-.07.49-2.75-.39-.34-.55-.01-.34-.79-1.15-.53-.28-.58-.17.11-.9-.21-.06-.54-.95-.51.06-.98-.35-.36-.16.06-.16-.44-1.07-.91-.5-.82-.47-.08-.03-.27-.84-1.11-.95-.2-1.01-1.86-.71-.23-.59.14-.76-.87-1.04-.57-.45-1.08.27-.74-.5-.75.03-.27-.61-.58-.42.01-.27-.64-.49-.14-.01-1.54-.64-.57.24-1.23.21-.16-.31-.93-.37-.39-.56-.16-.67-1.11-.51-.06-.95-.54.06-.34-.24-.2-.1-.47-.15-.04.01.4-.29.17-.13-.3.34-.56-.11-.31-.19.14.17.21-.57.34.49-.98-.21-.78-.55-.46.26-.33-.14-1.18.24-.68-.24-.14-.02-.37-.17-.01-.27-1.37-1.39-.54.57-1.07-.5-2.07.42-1.14-.13-.67.47-.84-.09-1.06-.75-1.32-.3-.17-.3.1-.21-.73-.58-.69 6.93-5.2 2.57-.59v-.85z"/><path id="EG-KB" class="land" d="M357.46 373.52l-2.41-1.48-1.65-2.78-.17-4.63-.88-1.74-.4-1.88 1.28-2.66 2.27-1.57 2.41-1.84.52-1.23.4-4.51.91.59 1.07 1.79 1.17.07-1.27 1.3-.08 2.48-.66.04v2.62l1.12 1.06 1.12 1.47 1.21 2.39 1.02 2.69 2.13 1.66 4.45 2.69-4.51.3-4.4 1.77-1.86 1.69z"/><path id="EG-KFS" class="land" d="M351.8 297.07l3.92.98 1.09.51 2.46.62 1.83.79.02 2.71-1.25-.11-1.01.91.08 2.09 1.09-.09.08 2.9.46 1 .07 10.62.24 1.7-.7.54-1.64-.31-2.71-.14-6.15.36v5.61l-5.22-.09-.39 1.9h-4.67l-.3-1.05-1.21-.01-1.92-3.49-5.93-5.58-3.66.35v-6.9l-2.8-3.22-.41-4.9 1.97-.01 2.51-.54 6.87-2.33 3.01-.76 1.94-1.27.62.2 1.07-.49 3.34-.83 1.49-.79.17.6-.17.65-1.08-.3-3.46.96-1.53.85-.57.58-1.85.96-3.28 1.19-1.08 1.02-.36.84-.59-.06-.78.36-1.49.05-.36.54-.78.12-1.07-.24-.84.3-.25 1.97 2.04.24 2.94-.08.59-1.95 1.07.3 1.72 1.22.67-.8.24-.72 1.85-1.25.54-.12.28.54.68.59 1.13-.3 2.99.34 1.12-.68 2.27-.6 2.1-3.54 2.39.18.07 1.03.68.27.68-1.84-.77-1.01-1.91-1.2-1.38-.59-1.86-.36.91-.46 1.51-.39z"/><path id="EG-KN" class="land" d="M422.69 625.51l-2.43-1.21-3.72-3.15-1.22-3.2-.41-3 .18-1.55-.76-1.52-.15-3.12-1.79-3.57.11-2.34.92-2.03 1.78-1.84 2.64-1.14 2.64-2.47 1.66-1.97.69-1.52v-2.67l.52-1.59 2.88-4.7-.25-2.25-1.22-2.27-.92-.76-2.58-.13-2.58 1.02-1.89 1.4-4.19 1.72-1.15.7-1.89.63-1.84.13-3.5.83-4.82.12-1.6-.63-4.86-4.24-2.18-2.66.69-1.13.98-.95 1.43-.96h1.32l1.21-.45 1.32-.95.69-1.15.86-.13 1.21.64.23 1.4.64 1.72 1.66.95.98 1.34h1.21l1.38-1.65 1.69-.12 1.43-.76 5-3.56 2.47-.83 6.08-.06 4.48.96 3.39 2.29 1.43 2.29.62 2.18 1.13 2.48.35 3.43.03 3.95-.2.77-1.74 5.5-1.97 3.15-5.77 3.76-1.89 3.1-1.72 1.83-.8 1.83v5.38l.8 2.53 1.55 2.46.71.64.07 3.57-1.02 3.53zm-.72-24.03l.92-1.35.61-1.44.31-1.6-2.68-.25-1.38 3.29-1.07 1.27 1.84.34 1.45-.26z"/><path id="EG-LX" class="land" d="M423.8 597.09l-.3 1.6-.62 1.44-.91 1.35-1.46.25-1.84-.34 1.08-1.26 1.38-3.3z"/><path id="EG-MN" class="land" d="M241.91 499.36l2.37-4.97.59-1.77.4-2.22.78-1.78 3.16-1.99 5.32-1.12 3.16-1.55 4.14-3.11 3.74-1.33 2.57-2 2.56-.67 3.75-3.34 4.73-3.11 2.56-2.01 2.37-2.23 1.18-5.57 1.58-5.36 1.18-3.35 1.58-2.9 1.14-4.34 2.51-.23 43.42-1.37 2.43 1.41 2.89 2.01 3.73.5-.46 1.61-1.29 3.72-.06 4.29-.04 2.48-3.53 5.77-.75 2.81.75 8.27 3.35 7.69.49 5.87 1.12 3.63.25 4.75-.37 3.34-2.78-.19-1.56 1.37-4.26-.88h-3.03l-.09-1.95-90.13-.18z"/><path id="EG-MNF" class="land" d="M347.01 345.13l4.43-.05.47 1.21-.17-.06.17.06.06 1.03 3.09.02 3.78 1.74-.41 4.63-.52 1.23-2.41 1.84-2.27 1.57-1.28 2.66.4 1.88.88 1.74.17 4.71-1.95.66-.76-.19-.89-.52-.8.9-1.63-.3-.9-.89-.07-1.8-.91-.89-1.42.07-.09-3.18-2.09-.14-.68.58-1.44.12.14-1.83 1.38-.15-.02-5.88-.58-1.54.26-1.73-1.17-.88.46-1.81-1.07-.08-.13-.4.27-4.66 3.52-.44.15-.99h2.42l.07.9 1.16.05z"/><path id="EG-MT" class="land" d="M84.21 293.66l.06.63-.2.6.04.42.4.5-.15.57.74 1.08.26 1.08.29.2-.64.6-.26-.03.3 1.02.66.58 1.32.54 3.69.77 2.01.06 1.24-.16 1.32.2 2.92-.77.87.09 1.2-.25 8.41-2.77 5.32-2.08 3.29-.82 1.19.01 2.17.63 1.49.16.65.29.52-.03.26.21 2.47.43 1.04.5 1.66.36.65.39 4.74 1.18 1.72.8 1.17.22.1.19 1.91.19.4.32h1.46l1.71.29 2.11.86 2.28-.28.54-.33.06.45 1.31.5 2.61-.09 2.67.47 1.91-.1.29.26 1.02.31.42.68 1.31.36.37.33.9.29 3.16.07 2.16-.26.9.07.32.49.57.26-.01.36.34.5 1.24.36.59-.09.32.35.29-.19.11.79.72.44.87.29 3.2-.07 2.43.36-.46.13-.19-.19-.82-.06-.21.22-.34-.22-.25.16v.44l1.77-.06.17-.2.14.32.7.12.24-.26.29.15.15-.2-.61-.23 1.41.04 3.15-.35v.26l.51.23-.27 1.25.3.63.61.61.02.52.61 1.26.15 1.05.92 1.13 1.97 1.37 1.75.36 3.06.01-.17.19.84.68 2.97-.3-.06.61.47.38.61-.06 1.34.29.17-.42-.37.28-.21-.01v-.28l2.37-.42 4.53-1.68.86-.89.04-.45.2.04.47.42-.15.65.27.35-.19-.1-.09.41.21 1.18.95 1.06-.1.55.2.33-.22.13.16.48-.15.2.31.46-.14.06.12.54.34.46 1.02.59 1.2.26 4.11.35 5.15-.35 2.08 1.06 3.25-.12 1.97.44 2.58-.81 2.62-.29.51.36.26-.09.17.39 1.24.87.92.13.62.36.9.06.77-.29-.05.22h.34l.16.36 1.19.26.25.85.56.3 1.96.54 2.45.07-.05.17.37.16-.06.41.19.17.17-.23.07.17.49.1h1.22l-.22.39.5.59 1.11.51 1.62.13.11 1.36.19.29.95.78 1.51.71.67.93 1.83.69.15.26.8.19.3.27.32-.07-.19.29.5.42 1.36.23.06.17-1.44-.33-.64-.48.16.27-.25-.13.29.35-.29-.12.24.25.99.38.51-.14.43.3.31-.04-.15-.26 2.33.45 3.12-.13 3.07-.77 5.99-2.14 4.37-2.33.94-.33 3.77-2.23 1.31-1.25 1.8-1.32.91 33.65v5.72l1.28 2.03 3.16 1.54 4.26.14 6.37 5.04 1.96.96 7.56 5.6 2.83.55 1.68 1.06 1.55 3.12-3.07.4-22.68 15-6.62 1.63-6.46 8.29-32.28 31.75-41.89 10.06-20.39 45.43-104.82-.01h-.81l-.02-80.41-.49-.91-1.42-3.99-2.1-4.35-.48-1.51-.74-1.08-1.02-2.73-.12-.72.77-1.99.91-1.12.03-1.16-3.43-8.11-.13-1.35.16-3.66-.31-1.69-2.69-9.13-2.48-2.75.51-1.71 2.26-4.29 1.05-3.45 2.31-1.95 1.07-1.35 1.44-2.77 1.63-1.7.96-3.33.06-1.67.26-1.1 1.06-2.38.61-3.56 1.17-3.39-1.27-4.36.02-1.03-.44-1.64-.79-1.25-.52-1.46-.29-1.77-1.17-3.5-1.6-3.54-.24-1.73.47-4.97-.06-2.19-.26-1.04-.63-1.01-.38-2.78.1-.52 3.49-2.78 1.11-1.11 4.45-3.23.39-.8.33-2.05.52-1.23 1.24-1.28.62-1.19.72-.07z"/><path id="EG-PTS" class="land" d="M409.09 317.27l2.53 1.42.19.38 1.2.9 1.8 2.25.06.49 1.86 1.67 1.4.87 1.67.41v3.04l-3.08-.81-3-1.94-3.19-1.16-1.94-.97-2.2-.17-.23-.65.93-.75 2.23-3.5-.23-1.48zm0 0l-.96-.15.01-.44.96.32-.01.27zm-.96-1.2l-.11.87-.5-.64.16-.03.1.25.22-.07.25-.87-.12.49zm-.67-3.11l-1.14 1.76.57.47-.14.29.19.28.54.19.03.36-.92 1.23-.26.7-.09-1.44.18-.39-.48-1.18-.31.57.13.39-.39.22.09.52-.3.72-.4-.54-.57-1.44.26-.48-.04-.48.32-.37 1.79.01.94-1.39z"/><path id="EG-SHG" class="land" d="M384.06 547.77l2.02 2.56.46 1.59.97 1.28 1.64.53.44 2.99 1.2 3.6 1.16 1.77.81.85 2.73 1.72 4.03 1.21 1.81 1.33 1.04 2.59 2.04 2.8.34.13-.19 1.64 1.96.88-1.38 1.64h-1.21l-.97-1.33-1.66-.95-.64-1.72-.23-1.4-1.21-.64-.86.13-.69 1.14-1.32.96-1.2.44h-1.32l-1.44.96-.97.95-.69 1.13-.23-.27-2.43-3.34-.9-.38-4.31-5.35-2.32-3.47-3.42-4.35-4.08-5.98-1.09-1.87-2.01-1.53-2.51-.47-5.52-6.72-.52-1.83.65-.2 1.19-.98 2.58-1.6 1.72-2.75 1.78.19.86 1.15.89 1.98 1.04.98.85 1.85 2.22.02 3.08 1.28 5.81 4.86z"/><path id="EG-SHR" class="land" d="M393.39 324.07l1.35-.12.98.38.06.45.36.27.3-.18.15-.39-.24-.27-.06-.47.22-.07.64.1.24.38.78.52.64-.06.67 1.21 1.96.08.19 5.65-1.7.05-.23 1.84-1.81 4.11.91 3.84.07 2.71-4.74 6.73-.26.94-5.04.3-.59.87-3.78-.19-.42-.88-2.26-.1.17 1.65 1.68.88.41 4.55 1.01 4.9-6.29 4.4-3.15 1.9h-4.59l-4.45-2.69-2.13-1.66-1.02-2.69-1.21-2.39-1.12-1.47-1.12-1.06v-2.62l.66-.04.08-2.48 1.27-1.3 2.02-1.99.92-2.37-.84-.77v-6.49l1.32-1.17 8.82-.24.21-1.47 1.32-.72.16-1.63 2.27-.18.14-2.89 2.88-2.98.15-1.98 1.09-1.81 3.59.07 5.09-.75 3.35-1.29-.21.45-.87.42z"/><path id="EG-SIN" class="land" d="M431.85 322.79l.39.59-.14.25-.31-.22.26.48-.41-.51-.08-.48.29-.11zm25.38-2.22l.84.61-.86-.41-.04.2-.2-.35.26-.05zm-13.74-4.02l1.7.07 4.03.65-.44.42-.34-.26-3.03-.62-4.24.06.04.31-.47.13.47.19.05.19.32-.13.1.16-1.31.3-.72-.03-2.02 1.14-.66.57-2.13.86-.16.45-.3.07-.22.32-.34-.09.86-.84 2.26-1.19 3.53-2.22 1.45-.44 1.57-.07zm50.5.4l3.71 12.31 2.56 7.51 3.96 8.31 1.3 5.41-.13 2.83 1.95 2.29-.93 2.62.11 1.59 3.14 2.05.92 3.44 5.33 14.97-.09.78 4.6 12.9-.03 2.48.81 1.4.2.97-.63 2.81.18 1.5.21.86.59 1.12 1.13 1.33-2.39-.58-3.74.15-3.73-.73-3.47-.29-3.86-.59-.31-.27-1.43.12-2.62-1.07-3.62-1.13-6.04-3.68-3.86-.88-3.6-1.18-11.37-7.33-1.77-.86-8.2-1.92-4.26.07-1.02-.29-8.36-1.18-9.77-.29-6.61.43-.02-.12-.24.28-1.87-.07v-1.84l-1.54-.15.13-11.38-1.04-3.86-.12-.01-.77-2.79-1.41-3.85-4.89-8.01-1.29-24.4v-3.04l3.35-.16 2.98-.7 2.42-.9 4.99-2.99.21.65-.45-.1-.39.17-2.52 1.25-1.97 1.25-.57.17-.11.22-.94.2-.79.46-3.62.7-.4.3.51.15.24-.1-.01-.3.25.15 1.24-.06v.71l-.74.2.49.17 1.02-.17.71-.71.8.28.79-.06 1.6-1.39.54-.15.52-.42.71-.13.09-.2.14.1.31-.35.82.23.29-.25.65.25.64-.15.4.28.26-.25-.03-.51-.42.22-.2-.16-.25.2.06-.28.36-.26 1.22.38.7.65.55-.16-.05.33.4.52-.3-.16-.13-.16-.48-.16.3.2-.31.23.39.51-.54.22.97.41h.91l.8-.74-.39-.36-.36.17.09-.67.71-.16.16-.29.69.14.36-.22-.07-.29-.25.1-.08-.26.24-.59.49-.15.04-.42-1.37.22-.25.23-.15.55.19.1-.27.32.15.33-.66-.36h-1.31l-.34.28-.39-.17-.05-.33-.24.07-.17-.22 1.46-.17.71-.7 1.02-1.76.76-.51.57-.04 2.51-1.5.26.29-.52-.1.24.15-.42-.04-.32.35.74.33-.09.19.67.71.3 1 .69.22.56 1.02-.77-.93-.31.15-.17-.2h-.47l-.11-.58-.16.03.06.33h-.47l.01.61.38.23-.13.19.59.55.55-.03-.36.25-.4-.25-.19.26.21.04.01.42 1.2.57.69-.07-.82.35.32.55-.31.23.29.12-.14.26-.3-.09-.01.29.11-.15.06.12-.2.29.57.06 1.1-.29.9-.55.16-.55 1.71-.23.52-.78.42.17-.32-.04-.2.25.32.23.31-.3.76-.13.41-.36.27.04-.25.26.26.15v-.19l.44-.01.06-.28-.25-.04.09-.19.76.1.21-.28-.61-.15-1.34.57-.44.41-.44.06v-.16l1.96-.84.35-.35 2.63-.25.22-.42-.13-.75.71-.97-.19-.45.9-.1-3.42-1.7-1.7-.26-.26.16-.51-.2-.15-.17.19-.36.84.52 2.51.48 2.32.84 2.02 1.21-.2.13-.17-.28-.56-.16-.03.13.35.09.24.2-.2.12.46.06.21.25-.14.2.4.01.24.45.49.17-.32-.45.04-.16-.14-.06.14-.06.49.73.65.23-.62-.6.14-.01.76.71.79.22 1.27.23 3.06.09 3.33-.22 1.88-.33 4.54-1.28.26-.42.25.26 2.21-.64 4.07-1.73 1.04-.25 6.35-3.69 2.38-1.77 1.6-1.47 1.75 5.77z"/><path id="EG-TER" class="land" d="M485.86 778.57l-3.68 11.17-19.82 2.26-17.86-13.52z"/><path id="EG-HT" class="land" d="M600.72 765.31l1.02.88-1.12-.11.09.5-.34-.12-.29.42-.13-.12.34-.42-.15-.44.31-.59h.27zm-39.7-30.41l.21.96-.09.32-.45.36-.02-1.24-.42-.24.09-.46.52.24.16.06zm-.96-.68l.01.86-.99-.32.08-.34.9-.2zm-5.24-10.85l.16.13.09.9.42.38-.19.32.11.62.26.24-.17.45.38.26.2-.22.32.7-.07.7.37 1.71-.14.86.8 1.63-.24.31.13-.43-.15.09-.11-.4h-.31l-.2.32.1.65.56.51.05-.5.42-.01-.26.26.32-.12.17.85.77.78-.05.16.21.03-.2.31.31.54.16.08-.27-.71.21-.03.31.88.39.28-.04.32.39.23.9 1.35.19-.16-.35-1.06.97-.31.47 1.41-.16.31-.16-.27-.26-.01-.15.58.52.44.64.05-.27-.49-.26.13.1-.61.15-.04.61 1.04-.13.19.33.24-.16.32.13-.11.72 1.28 2.05 2.03h.35l.62.39.06.22-.24.15.19.2.41.09-.09-.28.14-.03.24.38-.19-.05.05.16 1.11.24.36-.13.69.3.01.15-.32.03.03-.19-.36-.03.29.13-.13 1.08.74-.17-.11-.12.35-.16.21-.57.64.78h.92l.81.4.21-.12.5.13.08.24.22-.19.67-.03 2.04.79 1.87-.16-.04.13.54.32 1.22-.15.26.11.03.36.5.71 1.44.26.57.93.6.04.01.57.31.55.75.52.5 1.56.21 1.5.72 1.3 1.42 1.33 1.67 1.06.89.39.46-.2.56.51-.16 1.21.29 1.05.56 1.01 2.67 1.56.64.05 2.48 1.3.47.6.75.36-.07.2.67.4.75.96.82.24-.04.52.21.38.86.44.57.84.69-.01.19.55.96.94.99.32.85-.17.27.13.15-.42-.17-.16.15-.05.47.62.57.38-.08.75.15-.07.14.6 1.3.82.65 1.04 1.36.42.61.56.29-.04.05.4-126.12 2.59 3.3-9.78 23.87-4.38 11.66-27.08 11.72 3.41 2.18-2.06 16.25-15.25z"/><path id="EG-SUZ" class="land" d="M387.03 433.03l.78-14.24 2.19-25.47.04-4.35-1.93-13.47-1.23-4.26-.12-2.77 1.91-.18 18.62-.11 2.64.81 6.14.43 1.73-1.41 4.61-.52 5.85.28 1.05 3.86-.13 11.39 1.54.14v2.66l-2.57.59-6.93 5.2-.64-1.12-.6-.57-.56-.16 1.04-1.25-.12-.36.24-.59-.09-.36-.35-.14-.82-1.03-.64-.22-.39-.9-.37-.14v.31l-.25.22-.23-.46-.24-.06.32-.31-.31-.13.18-.45-.24-.04-.1.17.12-.37-.16-.07.54-.45-.4-.57-1.07.33-.07.2.33.5-.55-.66-.39-.03.19 7.82-1.22 1.39-1.92 1.4-1.4 2.44-.35 3.14-.7 3.67.11 3.01 1.39.94.56.19.3.71 1.19.97.12.47.92.37-.05.47.28.37 1.02.52 1.67 1.41.39.55-.06.39.32.14.22.7.34.24.44 2.29.37.49-.22.24.04.44.47.34-.03.7.45.43.22.57-.23.24-.07.58.36.89-.23-.15-.01.17.45.36.11.87.34.18-.04 1.2.22.48v.75l.17.13-5.37.19-3.94 2.34-4.28 1.17-8.03 4.94-6.63.1-5.16.98z"/><path id="EG-WAD" class="land" d="M243.36 499.36l90.13.18.09 1.95-1.04.1-.09 2.24.78.78.17 1.94 1.03.47.45 2.55.95 2.04 1.39 1.85.52 2.14 1.13 1.65 1.39.78 6.05 5.73.99.53 3.81.63 2.69 1.55 1.71 2.81 3.64 8 2.24 3.71.52 1.83 5.52 6.72 2.51.47 2.01 1.53 1.09 1.87 4.08 5.98 3.42 4.35 2.32 3.47 4.31 5.35.9.38 2.43 3.34 2.41 2.93 4.86 4.24 1.6.63 4.82-.13 3.5-.82 1.84-.13 1.89-.64 1.15-.7 4.19-1.71 1.9-1.4 2.58-1.02 2.58.13.92.76 1.22 2.27.25 2.26-2.88 4.7-.51 1.58v2.67l-.69 1.52-1.67 1.97-2.64 2.47-2.64 1.14-1.78 1.83-.92 2.03-.11 2.34 1.79 3.57.15 3.12.77 1.52-.19 1.55.42 2.99 1.22 3.2 3.72 3.16 2.44 1.2 3.49 1.62 2.68 2.52 1.6 2.01.39 1.85.03 4.77 1.73 5.75 1.8 3.48-.56 3.32v2.88l-1.41 6.97-.02 3.42-.59 4.2-.39 9.41-3.74 3.91-3.12 1.41-1.39 1.39.17 3.14 3.6 3.25.32 1.26-2.12 1.72-2.01.56-2.19.91-3.85 2.38-1.41 2.01-1.71 5.93-.36 3.28 1.39 1.65 5.18 1.23 2.68.36 1.72-.39 2.07-.11.48 1.98-.3.96-3.11 4.89-1.54 3.24-3.01 4.97-1.25 2.8-.79 2.37-3.88 7.51-1.64.92-1.5-.66-1.94-1.22-2.57-.51-2.59-.26-.98-.38-16.39 4.78-1.61.23-2.05-.23-2.77.02-1.17.5-1.47 1.74-.84 1.83.21 2.22v4.33l.23 1.6-.48 1.58-.83 1.57-1.92 2.16-2.96 2.73-4-.12-3.01.91-4.32 2.23-.78 2.75 1.51 2.22 2.67-.26.93.08.18 2.16-1.72 5.23-59.25.06v.29l-5.51-.26-9.48-.05-143.35-.08-60.07.14-6.26.25V499.49l.81-.01 106.1.02h.68z"/></svg>